<svg width="16" height="17" viewBox="0 0 16 17" fill="none" xmlns="http://www.w3.org/2000/svg">
<path d="M2 15H5.34625V9.96149C5.34625 9.70549 5.43283 9.49082 5.606 9.31749C5.77933 9.14432 5.994 9.05774 6.25 9.05774H9.75C10.006 9.05774 10.2207 9.14432 10.394 9.31749C10.5672 9.49082 10.6538 9.70549 10.6538 9.96149V15H14V6.15374C14 6.10257 13.9888 6.05616 13.9663 6.01449C13.9439 5.97282 13.9135 5.93591 13.875 5.90374L8.18275 1.62499C8.13142 1.58016 8.0705 1.55774 8 1.55774C7.9295 1.55774 7.86858 1.58016 7.81725 1.62499L2.125 5.90374C2.0865 5.93591 2.05608 5.97282 2.03375 6.01449C2.01125 6.05616 2 6.10257 2 6.15374V15ZM0.5 15V6.15374C0.5 5.86757 0.564 5.59649 0.692 5.34049C0.820166 5.08432 0.997167 4.87341 1.223 4.70774L6.9155 0.41924C7.23133 0.17824 7.59233 0.0577393 7.9985 0.0577393C8.40467 0.0577393 8.76667 0.17824 9.0845 0.41924L14.777 4.70774C15.0028 4.87341 15.1798 5.08432 15.308 5.34049C15.436 5.59649 15.5 5.86757 15.5 6.15374V15C15.5 15.409 15.3523 15.7612 15.0568 16.0567C14.7613 16.3522 14.409 16.5 14 16.5H10.0577C9.80158 16.5 9.58692 16.4133 9.41375 16.24C9.24042 16.0668 9.15375 15.8522 9.15375 15.596V10.5577H6.84625V15.596C6.84625 15.8522 6.75958 16.0668 6.58625 16.24C6.41308 16.4133 6.19842 16.5 5.94225 16.5H2C1.591 16.5 1.23875 16.3522 0.94325 16.0567C0.64775 15.7612 0.5 15.409 0.5 15Z" fill="url(#paint0_linear_1_1698)"/>
<defs>
<linearGradient id="paint0_linear_1_1698" x1="-1" y1="1.00012" x2="18.5" y2="19.0001" gradientUnits="userSpaceOnUse">
<stop stop-color="#3399FF" stop-opacity="0.929412"/>
<stop offset="1" stop-color="white"/>
</linearGradient>
</defs>
</svg>
