<svg width="59" height="18" viewBox="0 0 59 18" fill="none" xmlns="http://www.w3.org/2000/svg">
<path d="M8.38025 4.59985L0.534134 17.3111H4.14126L8.56264 10.1486L9.15385 11.0163L11.6311 14.6526L13.3206 11.8947L8.38025 4.59985Z" fill="white"/>
<path d="M5.26099 17.3106H9.97148L15.7074 8.0284L22.0142 17.3106H26.749L15.4957 0.761963L5.26099 17.3106Z" fill="white"/>
<path d="M11.1003 17.3103L13.4386 13.5252L14.5262 15.1213L16.8498 11.3691L20.8923 17.3103H11.1003Z" fill="#3399FF"/>
<path d="M46.2221 7.87517C46.2221 8.82117 46.6676 9.73877 47.6264 9.73877C48.4367 9.73877 48.666 9.38956 48.8551 8.93814H50.7863C50.5435 9.85517 49.7733 11.369 47.5858 11.369C45.2768 11.369 44.2773 9.52015 44.2773 7.54015C44.2773 5.16722 45.3982 3.47852 47.6529 3.47852C50.0432 3.47852 50.8665 5.35631 50.8665 7.2341C50.8665 7.49587 50.8665 7.65599 50.8394 7.8746H46.2215L46.2221 7.87517ZM48.9229 6.59416C48.9093 5.72085 48.5852 4.97814 47.64 4.97814C46.6947 4.97814 46.3435 5.66236 46.2627 6.59416H48.9229Z" fill="white"/>
<path d="M53.6493 8.92378C53.7978 9.53533 54.2569 9.86978 54.9729 9.86978C55.6889 9.86978 55.9452 9.59325 55.9452 9.12763C55.9452 8.66202 55.6482 8.45817 54.6487 8.19583C52.3669 7.58429 52.0021 6.82738 52.0021 5.76498C52.0021 4.70258 52.7176 3.47949 54.8244 3.47949C56.9311 3.47949 57.6737 4.73154 57.7273 5.75022H55.891C55.8233 5.47369 55.6482 4.94959 54.743 4.94959C54.1083 4.94959 53.8921 5.25508 53.8921 5.59009C53.8921 5.96883 54.1083 6.14315 55.2422 6.43445C57.5783 7.01703 57.9159 7.87558 57.9159 8.98227C57.9159 10.2343 57.0249 11.37 54.9045 11.37C52.7842 11.37 51.9067 10.2638 51.7446 8.92435H53.6487L53.6493 8.92378Z" fill="white"/>
<path d="M26.749 11.3692L26.7502 0.761719H29.3042L31.0219 5.8568L32.717 0.761719H35.1609V11.3692H32.9723L32.979 5.34462L31.8345 8.83106H30.0467L28.8863 5.1879L28.9326 11.3692H26.749Z" fill="white"/>
<path d="M36.8408 11.3696V3.62169H39.0425V11.3696H36.8408ZM36.8408 2.78585V0.762695H39.0425V2.78585H36.8408Z" fill="white"/>
<path d="M42.9199 0.762695H40.7256V11.3696H42.9199V0.762695Z" fill="white"/>
<path d="M30.7915 13.5476H33.7131V14.3499H31.8841V14.9473H33.5804V15.7139H31.8841V16.4549H33.7656V17.306H30.7915V13.5476Z" fill="white"/>
<path d="M36.1621 15.9368C36.1621 15.7233 36.1197 15.5638 36.0345 15.4587C35.9492 15.3537 35.8419 15.3009 35.712 15.3009C35.598 15.3009 35.5025 15.3514 35.4257 15.4519C35.3489 15.553 35.31 15.7222 35.31 15.9596C35.31 16.1816 35.3495 16.3445 35.4291 16.4479C35.5087 16.5512 35.607 16.6029 35.7239 16.6029C35.8492 16.6029 35.9531 16.5507 36.0367 16.4462C36.1203 16.3417 36.1621 16.1719 36.1621 15.9363M37.144 13.5474V17.3059H36.227V16.9033C36.0988 17.0742 35.9814 17.1895 35.8758 17.2491C35.7346 17.3274 35.5776 17.3672 35.4043 17.3672C35.0559 17.3672 34.7899 17.2264 34.6064 16.9442C34.4229 16.662 34.3308 16.3196 34.3308 15.9158C34.3308 15.4644 34.4325 15.1192 34.6352 14.8801C34.8379 14.6411 35.096 14.5213 35.4088 14.5213C35.5613 14.5213 35.6996 14.5485 35.8238 14.6036C35.9481 14.6581 36.0587 14.7404 36.1547 14.8495V13.5469H37.144V13.5474Z" fill="white"/>
<path d="M40.5771 17.3057H39.6623V16.8645C39.5263 17.0457 39.3885 17.1746 39.2496 17.2518C39.1107 17.3284 38.9401 17.367 38.738 17.367C38.4686 17.367 38.2569 17.2813 38.1038 17.1093C37.9508 16.9372 37.874 16.6732 37.874 16.316V14.583H38.8582V16.0804C38.8582 16.2513 38.8882 16.3728 38.9475 16.4443C39.0068 16.5159 39.0903 16.5522 39.1976 16.5522C39.3151 16.5522 39.4105 16.5045 39.485 16.4086C39.5596 16.3126 39.5968 16.1411 39.5968 15.893V14.583H40.5765V17.3057H40.5771Z" fill="white"/>
<path d="M43.2183 16.2397L44.1494 16.3527C44.098 16.5594 44.0139 16.7383 43.8964 16.8899C43.7795 17.0409 43.6299 17.1585 43.4475 17.2425C43.2651 17.326 43.0342 17.368 42.753 17.368C42.4718 17.368 42.2561 17.3413 42.0754 17.2874C41.8947 17.2334 41.7394 17.1465 41.6095 17.0262C41.4796 16.9058 41.3774 16.7644 41.304 16.602C41.23 16.4396 41.1933 16.2244 41.1933 15.9564C41.1933 15.6884 41.238 15.4431 41.3283 15.2568C41.3944 15.12 41.4836 14.9979 41.5976 14.8889C41.7117 14.7804 41.8286 14.6998 41.9489 14.647C42.1397 14.5635 42.3842 14.5215 42.6829 14.5215C43.1002 14.5215 43.4181 14.601 43.6372 14.76C43.8563 14.919 44.0099 15.1512 44.098 15.4573L43.1765 15.5879C43.1477 15.4715 43.0952 15.384 43.0189 15.325C42.9427 15.2659 42.8405 15.2364 42.7123 15.2364C42.5502 15.2364 42.4192 15.2983 42.3187 15.4221C42.2182 15.5458 42.1685 15.7332 42.1685 15.9836C42.1685 16.2074 42.2182 16.3771 42.3176 16.493C42.417 16.6088 42.544 16.6673 42.6982 16.6673C42.8264 16.6673 42.9342 16.6321 43.0218 16.5622C43.1093 16.4924 43.1742 16.3845 43.2177 16.2392" fill="white"/>
<path d="M46.412 16.0137C46.2771 16.0648 46.137 16.1103 45.9908 16.1494C45.792 16.2062 45.6655 16.2613 45.613 16.3164C45.5583 16.3726 45.5312 16.4368 45.5312 16.5089C45.5312 16.5906 45.5583 16.6582 45.6119 16.7104C45.6655 16.7627 45.7446 16.7888 45.8491 16.7888C45.9535 16.7888 46.0597 16.7604 46.1534 16.7042C46.2472 16.648 46.3138 16.5793 46.3533 16.4981C46.3928 16.4169 46.4126 16.3113 46.4126 16.1812V16.0149L46.412 16.0137ZM45.5622 15.4652L44.626 15.3602C44.6616 15.1858 44.7124 15.049 44.779 14.9485C44.8456 14.8485 44.9416 14.7617 45.0664 14.6884C45.1562 14.6356 45.2799 14.5942 45.4368 14.5652C45.5944 14.5362 45.7644 14.5215 45.9473 14.5215C46.2409 14.5215 46.477 14.5391 46.6548 14.5743C46.8327 14.6095 46.9812 14.6822 47.0998 14.7935C47.1834 14.8701 47.2489 14.9791 47.2974 15.1205C47.3454 15.2614 47.3697 15.3959 47.3697 15.5243V16.7269C47.3697 16.8552 47.3776 16.9557 47.3929 17.0284C47.4081 17.1011 47.4414 17.1937 47.4928 17.3067H46.5735C46.5368 17.2368 46.5126 17.1834 46.5013 17.1465C46.49 17.1096 46.4787 17.0523 46.4674 16.9733C46.3392 17.1051 46.2116 17.1988 46.0845 17.2556C45.9112 17.3305 45.7102 17.3685 45.4803 17.3685C45.1754 17.3685 44.9439 17.2936 44.7858 17.1431C44.6277 16.9927 44.5486 16.807 44.5486 16.5867C44.5486 16.38 44.6057 16.2096 44.7197 16.0762C44.8338 15.9427 45.0438 15.8439 45.3505 15.7786C45.7181 15.7003 45.9563 15.6452 46.0653 15.6134C46.1743 15.5816 46.2901 15.5402 46.412 15.4891C46.412 15.3607 46.3872 15.271 46.3375 15.2199C46.2878 15.1688 46.2003 15.1432 46.0755 15.1432C45.9151 15.1432 45.7949 15.1705 45.7141 15.225C45.6514 15.2676 45.6012 15.3482 45.5628 15.4658L45.5622 15.4652Z" fill="white"/>
<path d="M49.1245 13.5479V14.5836H49.6638V15.3479H49.1245V16.3126C49.1245 16.4284 49.1347 16.5051 49.1562 16.5426C49.1883 16.6005 49.2442 16.6294 49.3244 16.6294C49.3967 16.6294 49.4978 16.6073 49.6277 16.563L49.6999 17.2836C49.4577 17.3398 49.2313 17.3682 49.0212 17.3682C48.7773 17.3682 48.5977 17.3347 48.4819 17.2682C48.3662 17.2018 48.2809 17.1007 48.2256 16.965C48.1702 16.8293 48.1426 16.6096 48.1426 16.3058V15.3484H47.7817V14.5841H48.1426V14.0844L49.1245 13.5484V13.5479Z" fill="white"/>
<path d="M50.2363 14.5836H51.216V17.3063H50.2363V14.5836ZM50.2363 13.5479H51.216V14.2582H50.2363V13.5479Z" fill="white"/>
<path d="M52.7737 15.9498C52.7737 16.1923 52.82 16.3717 52.912 16.4881C53.0041 16.6045 53.1204 16.6624 53.2599 16.6624C53.3993 16.6624 53.5168 16.6051 53.6077 16.4909C53.698 16.3762 53.7438 16.1928 53.7438 15.9396C53.7438 15.7039 53.698 15.5279 53.6066 15.4126C53.5151 15.2974 53.4022 15.2395 53.2672 15.2395C53.1243 15.2395 53.0063 15.2979 52.9137 15.4149C52.8205 15.5319 52.7742 15.7102 52.7742 15.9498M51.7917 15.9521C51.7917 15.537 51.9233 15.1946 52.1864 14.9255C52.4496 14.6563 52.8047 14.5217 53.2525 14.5217C53.7641 14.5217 54.1509 14.6796 54.4124 14.9959C54.6224 15.2502 54.7274 15.5643 54.7274 15.9367C54.7274 16.3558 54.597 16.6988 54.3361 16.9662C54.0753 17.2337 53.715 17.3677 53.2542 17.3677C52.8437 17.3677 52.5117 17.2564 52.2581 17.0343C51.947 16.759 51.7912 16.3984 51.7912 15.9526L51.7917 15.9521Z" fill="white"/>
<path d="M55.2695 14.5834H56.1815V15.0268C56.3176 14.8457 56.4559 14.7162 56.5954 14.6385C56.7349 14.5607 56.9048 14.5215 57.1059 14.5215C57.3769 14.5215 57.5892 14.6072 57.7422 14.7793C57.8953 14.9513 57.9721 15.2165 57.9721 15.5754V17.3061H56.9878V15.8087C56.9878 15.6378 56.9579 15.5169 56.8986 15.4459C56.8393 15.3749 56.7558 15.3397 56.6485 15.3397C56.5299 15.3397 56.4333 15.3874 56.3599 15.4834C56.2859 15.5793 56.2492 15.7508 56.2492 15.999V17.3067H55.2695V14.5839V14.5834Z" fill="white"/>
</svg>
